<?xml version="1.0" encoding="UTF-8"?>
<svg id="_레이어_1" data-name="레이어_1" xmlns="http://www.w3.org/2000/svg" version="1.1" viewBox="0 0 41 30.6">
  <!-- Generator: Adobe Illustrator 29.5.0, SVG Export Plug-In . SVG Version: 2.1.0 Build 137)  -->
  <defs>
    <style>
      .st0, .st1 {
        fill: #fff;
      }

      .st1 {
        fill-rule: evenodd;
      }
    </style>
  </defs>
  <path class="st1" d="M0,22.9h11v7.7H0v-7.7ZM15,22.9h11v7.7h-11v-7.7ZM30,22.9h11v7.7h-11v-7.7ZM11.8,0h17.4v7.7H11.8V0Z"/>
  <g>
    <rect class="st0" x="5.4" y="13" width="11" height="2.5" transform="translate(-6.9 11.9) rotate(-45)"/>
    <path class="st0" d="M4.8,20.4l1-3.7,1-3.7,2.7,2.7,2.7,2.7-3.7,1-3.7,1Z"/>
  </g>
  <g>
    <rect class="st0" x="27.2" y="8.8" width="2.5" height="11" transform="translate(-1.8 24.3) rotate(-45)"/>
    <path class="st0" d="M34.6,20.4l-1-3.7-1-3.7-2.7,2.7-2.7,2.7,3.7,1,3.7,1Z"/>
  </g>
  <polygon class="st0" points="21.4 10.2 18.9 10.1 18.9 18.6 21.3 18.7 21.4 10.2"/>
  <path class="st0" d="M20.1,21.9l2-3.3,2-3.3h-3.9s-3.9,0-3.9,0l1.9,3.4,1.9,3.4Z"/>
</svg>