<svg width="32" height="32" viewBox="0 0 32 32" fill="none" xmlns="http://www.w3.org/2000/svg">
<path d="M18.1538 8.5H22.7692L24.6154 11.5H20L18.1538 8.5Z" fill="url(#paint0_linear_2_4844)"/>
<path d="M21.8462 14.5L27.3846 23.5H32L26.4615 14.5H21.8462Z" fill="url(#paint1_linear_2_4844)"/>
<path d="M14.1504 8.5C14.3601 8.5 14.5524 8.61591 14.6469 8.8L23.6888 23.5H19.0769L10.035 8.8C9.94056 8.61591 9.74825 8.5 9.53846 8.5H14.1504Z" fill="url(#paint2_linear_2_4844)"/>
<path d="M9.54196 8.5C9.33217 8.5 9.13986 8.61591 9.04545 8.8L0 23.5H4.61189L13.6573 8.8C13.7517 8.61591 13.9441 8.5 14.1538 8.5H9.54196Z" fill="url(#paint3_linear_2_4844)"/>
<defs>
<linearGradient id="paint0_linear_2_4844" x1="18.077" y1="8.68409" x2="35.2014" y2="15.864" gradientUnits="userSpaceOnUse">
<stop stop-color="#003764"/>
<stop offset="1" stop-color="#30343A"/>
</linearGradient>
<linearGradient id="paint1_linear_2_4844" x1="15.6363" y1="14.5034" x2="32.7607" y2="21.6833" gradientUnits="userSpaceOnUse">
<stop stop-color="#003764"/>
<stop offset="1" stop-color="#30343A"/>
</linearGradient>
<linearGradient id="paint2_linear_2_4844" x1="12.6537" y1="9.56023" x2="21.5449" y2="24.7589" gradientUnits="userSpaceOnUse">
<stop stop-color="#010B13"/>
<stop offset="0.24" stop-color="#A21631"/>
<stop offset="0.48" stop-color="#E4032E"/>
</linearGradient>
<linearGradient id="paint3_linear_2_4844" x1="-1.68531" y1="12.4307" x2="15.7049" y2="19.8826" gradientUnits="userSpaceOnUse">
<stop stop-color="#003764"/>
<stop offset="1" stop-color="#30343A"/>
</linearGradient>
</defs>
</svg>
