<svg width="50" height="48" viewBox="0 0 50 48" fill="none" xmlns="http://www.w3.org/2000/svg">
<path d="M37.0595 22.9062C36.092 22.2339 34.9974 21.7664 33.8428 21.5321C32.6883 21.2978 31.498 21.3017 30.345 21.5437C29.1921 21.7856 28.1006 22.2605 27.1376 22.9391C26.1746 23.6178 25.3604 24.4859 24.7447 25.4904C23.8424 26.9042 22.549 28.0257 21.0216 28.7186C19.4942 29.4115 17.7985 29.6461 16.1404 29.3939C14.4822 29.1417 12.9329 28.4135 11.6807 27.2978C10.4284 26.1821 9.52692 24.7268 9.08577 23.1086C9.0785 23.0754 9.07019 23.0505 9.06085 23.0173C9.05329 22.9804 9.04359 22.944 9.03178 22.9082C8.70498 21.7909 8.55539 20.6291 8.58844 19.4654C8.58844 11.7024 16.5519 3.061 28.0256 3.061C39.7724 3.061 46.4951 12.0045 48.2259 16.9736C48.1968 16.8864 48.1698 16.7992 48.1397 16.7099C46.2393 11.1715 42.436 6.48679 37.4064 3.48881C32.3768 0.490826 26.4468 -0.626034 20.6712 0.336859C14.8956 1.29975 9.64867 4.27998 5.86367 8.74751C2.07867 13.215 0.000941155 18.8802 0 24.7356C0 36.9465 8.80752 47.3996 21.0236 47.3996C25.1972 47.5359 29.3077 46.3539 32.7713 44.0214C36.2349 41.6889 38.8757 38.3245 40.3186 34.4059C41.1675 32.4047 41.3072 30.1735 40.7145 28.082C40.1217 25.9905 38.8322 24.1644 37.0595 22.9062Z" fill="#003764"/>
<path d="M48.383 17.4566C46.8677 13.2647 44.1044 9.63767 40.4651 7.06391C36.8258 4.49016 32.4853 3.09324 28.028 3.06123C16.5553 3.06123 8.59086 11.7036 8.59086 19.4656C8.5578 20.6294 8.70739 21.7911 9.03419 22.9085C8.8868 22.3316 8.81044 21.7389 8.80681 21.1434C8.80681 13.0596 16.9052 7.45823 25.2227 7.45823C30.632 7.45796 35.8199 9.60646 39.6451 13.4311C43.4704 17.2558 45.6197 22.4433 45.6202 27.8526C45.6226 32.0375 44.457 36.14 42.2546 39.6985C40.0522 43.2569 36.9004 46.1301 33.1539 47.9947V47.9999C37.9339 46.2679 42.0645 43.1056 44.9838 38.9431C47.9032 34.7806 49.4696 29.82 49.4701 24.7358C49.4772 22.2684 49.1107 19.8142 48.383 17.4566Z" fill="#E4032E"/>
</svg>
